<mxfile host="Electron" modified="2023-06-18T07:27:34.172Z" agent="Mozilla/5.0 (Windows NT 10.0; Win64; x64) AppleWebKit/537.36 (KHTML, like Gecko) draw.io/21.2.8 Chrome/112.0.5615.165 Electron/24.2.0 Safari/537.36" etag="b_oGX-trPeg7YOj-o59b" version="21.2.8" type="device">
  <diagram id="C5RBs43oDa-KdzZeNtuy" name="Page-1">
    <mxGraphModel dx="2103" dy="614" grid="1" gridSize="10" guides="1" tooltips="1" connect="1" arrows="1" fold="1" page="1" pageScale="1" pageWidth="827" pageHeight="1169" math="0" shadow="0">
      <root>
        <mxCell id="WIyWlLk6GJQsqaUBKTNV-0" />
        <mxCell id="WIyWlLk6GJQsqaUBKTNV-1" parent="WIyWlLk6GJQsqaUBKTNV-0" />
        <mxCell id="CTdliA3NCelJ69mW_nRL-2" style="edgeStyle=orthogonalEdgeStyle;rounded=0;orthogonalLoop=1;jettySize=auto;html=1;entryX=0;entryY=0.5;entryDx=0;entryDy=0;" parent="WIyWlLk6GJQsqaUBKTNV-1" source="WIyWlLk6GJQsqaUBKTNV-3" target="CTdliA3NCelJ69mW_nRL-3" edge="1">
          <mxGeometry relative="1" as="geometry">
            <mxPoint x="-160" y="90" as="targetPoint" />
          </mxGeometry>
        </mxCell>
        <mxCell id="WIyWlLk6GJQsqaUBKTNV-3" value="Operate&amp;nbsp;as Shop Owner" style="rounded=1;whiteSpace=wrap;html=1;fontSize=12;glass=0;strokeWidth=1;shadow=0;" parent="WIyWlLk6GJQsqaUBKTNV-1" vertex="1">
          <mxGeometry x="-330" y="70" width="120" height="40" as="geometry" />
        </mxCell>
        <mxCell id="CTdliA3NCelJ69mW_nRL-1" style="edgeStyle=orthogonalEdgeStyle;rounded=0;orthogonalLoop=1;jettySize=auto;html=1;entryX=0;entryY=0.5;entryDx=0;entryDy=0;" parent="WIyWlLk6GJQsqaUBKTNV-1" source="CTdliA3NCelJ69mW_nRL-0" target="WIyWlLk6GJQsqaUBKTNV-3" edge="1">
          <mxGeometry relative="1" as="geometry" />
        </mxCell>
        <mxCell id="CTdliA3NCelJ69mW_nRL-0" value="" style="shape=ellipse;fillColor=#000000;strokeColor=none;html=1;sketch=0;" parent="WIyWlLk6GJQsqaUBKTNV-1" vertex="1">
          <mxGeometry x="-380" y="85" width="10" height="10" as="geometry" />
        </mxCell>
        <mxCell id="CTdliA3NCelJ69mW_nRL-4" style="edgeStyle=orthogonalEdgeStyle;rounded=0;orthogonalLoop=1;jettySize=auto;html=1;" parent="WIyWlLk6GJQsqaUBKTNV-1" source="CTdliA3NCelJ69mW_nRL-3" edge="1">
          <mxGeometry relative="1" as="geometry">
            <mxPoint x="-30" y="90" as="targetPoint" />
          </mxGeometry>
        </mxCell>
        <mxCell id="CTdliA3NCelJ69mW_nRL-3" value="Navigate to &quot;My shop section&quot;" style="rounded=1;whiteSpace=wrap;html=1;fontSize=12;glass=0;strokeWidth=1;shadow=0;" parent="WIyWlLk6GJQsqaUBKTNV-1" vertex="1">
          <mxGeometry x="-180" y="70" width="120" height="40" as="geometry" />
        </mxCell>
        <mxCell id="CTdliA3NCelJ69mW_nRL-6" style="edgeStyle=orthogonalEdgeStyle;rounded=0;orthogonalLoop=1;jettySize=auto;html=1;" parent="WIyWlLk6GJQsqaUBKTNV-1" source="CTdliA3NCelJ69mW_nRL-5" edge="1">
          <mxGeometry relative="1" as="geometry">
            <mxPoint x="120" y="90" as="targetPoint" />
          </mxGeometry>
        </mxCell>
        <mxCell id="CTdliA3NCelJ69mW_nRL-5" value="Select the desired operation" style="rounded=1;whiteSpace=wrap;html=1;fontSize=12;glass=0;strokeWidth=1;shadow=0;" parent="WIyWlLk6GJQsqaUBKTNV-1" vertex="1">
          <mxGeometry x="-30" y="70" width="120" height="40" as="geometry" />
        </mxCell>
        <mxCell id="JFEak406XiJLU-9GUNY_-29" style="edgeStyle=orthogonalEdgeStyle;rounded=0;orthogonalLoop=1;jettySize=auto;html=1;exitX=1;exitY=0.5;exitDx=0;exitDy=0;entryX=0;entryY=0.5;entryDx=0;entryDy=0;" parent="WIyWlLk6GJQsqaUBKTNV-1" source="CTdliA3NCelJ69mW_nRL-7" target="CTdliA3NCelJ69mW_nRL-14" edge="1">
          <mxGeometry relative="1" as="geometry" />
        </mxCell>
        <mxCell id="CTdliA3NCelJ69mW_nRL-7" value="Implement the updates" style="rounded=1;whiteSpace=wrap;html=1;fontSize=12;glass=0;strokeWidth=1;shadow=0;" parent="WIyWlLk6GJQsqaUBKTNV-1" vertex="1">
          <mxGeometry x="120" y="70" width="120" height="40" as="geometry" />
        </mxCell>
        <mxCell id="CTdliA3NCelJ69mW_nRL-16" style="edgeStyle=orthogonalEdgeStyle;rounded=0;orthogonalLoop=1;jettySize=auto;html=1;entryX=0.5;entryY=0;entryDx=0;entryDy=0;startArrow=none;" parent="WIyWlLk6GJQsqaUBKTNV-1" edge="1">
          <mxGeometry relative="1" as="geometry">
            <mxPoint x="310" y="190" as="targetPoint" />
            <mxPoint x="310" y="190" as="sourcePoint" />
          </mxGeometry>
        </mxCell>
        <mxCell id="JFEak406XiJLU-9GUNY_-26" style="edgeStyle=orthogonalEdgeStyle;rounded=0;orthogonalLoop=1;jettySize=auto;html=1;exitX=0.5;exitY=0;exitDx=0;exitDy=0;entryX=0.5;entryY=0;entryDx=0;entryDy=0;" parent="WIyWlLk6GJQsqaUBKTNV-1" source="CTdliA3NCelJ69mW_nRL-14" target="CTdliA3NCelJ69mW_nRL-5" edge="1">
          <mxGeometry relative="1" as="geometry" />
        </mxCell>
        <mxCell id="JFEak406XiJLU-9GUNY_-28" style="edgeStyle=orthogonalEdgeStyle;rounded=0;orthogonalLoop=1;jettySize=auto;html=1;exitX=0.5;exitY=1;exitDx=0;exitDy=0;entryX=1;entryY=0.5;entryDx=0;entryDy=0;" parent="WIyWlLk6GJQsqaUBKTNV-1" source="CTdliA3NCelJ69mW_nRL-14" target="CTdliA3NCelJ69mW_nRL-87" edge="1">
          <mxGeometry relative="1" as="geometry" />
        </mxCell>
        <mxCell id="CTdliA3NCelJ69mW_nRL-14" value="Other adjustments?" style="rhombus;whiteSpace=wrap;html=1;" parent="WIyWlLk6GJQsqaUBKTNV-1" vertex="1">
          <mxGeometry x="310" y="45" width="100" height="90" as="geometry" />
        </mxCell>
        <mxCell id="CTdliA3NCelJ69mW_nRL-17" value="YES" style="text;html=1;align=center;verticalAlign=middle;resizable=0;points=[];autosize=1;strokeColor=none;fillColor=none;" parent="WIyWlLk6GJQsqaUBKTNV-1" vertex="1">
          <mxGeometry x="140" width="50" height="30" as="geometry" />
        </mxCell>
        <mxCell id="CTdliA3NCelJ69mW_nRL-18" value="NO" style="text;html=1;align=center;verticalAlign=middle;resizable=0;points=[];autosize=1;strokeColor=none;fillColor=none;" parent="WIyWlLk6GJQsqaUBKTNV-1" vertex="1">
          <mxGeometry x="360" y="150" width="40" height="30" as="geometry" />
        </mxCell>
        <mxCell id="CTdliA3NCelJ69mW_nRL-75" style="edgeStyle=orthogonalEdgeStyle;rounded=0;orthogonalLoop=1;jettySize=auto;html=1;entryX=0;entryY=0.5;entryDx=0;entryDy=0;" parent="WIyWlLk6GJQsqaUBKTNV-1" source="CTdliA3NCelJ69mW_nRL-73" target="CTdliA3NCelJ69mW_nRL-74" edge="1">
          <mxGeometry relative="1" as="geometry" />
        </mxCell>
        <mxCell id="CTdliA3NCelJ69mW_nRL-73" value="" style="shape=ellipse;fillColor=#000000;strokeColor=none;html=1;sketch=0;" parent="WIyWlLk6GJQsqaUBKTNV-1" vertex="1">
          <mxGeometry x="-535" y="330" width="10" height="10" as="geometry" />
        </mxCell>
        <mxCell id="CTdliA3NCelJ69mW_nRL-77" style="edgeStyle=orthogonalEdgeStyle;rounded=0;orthogonalLoop=1;jettySize=auto;html=1;entryX=0;entryY=0.5;entryDx=0;entryDy=0;" parent="WIyWlLk6GJQsqaUBKTNV-1" source="CTdliA3NCelJ69mW_nRL-74" target="CTdliA3NCelJ69mW_nRL-76" edge="1">
          <mxGeometry relative="1" as="geometry" />
        </mxCell>
        <mxCell id="CTdliA3NCelJ69mW_nRL-74" value="Operate as Customer" style="rounded=1;whiteSpace=wrap;html=1;fontSize=12;glass=0;strokeWidth=1;shadow=0;" parent="WIyWlLk6GJQsqaUBKTNV-1" vertex="1">
          <mxGeometry x="-485" y="315" width="120" height="40" as="geometry" />
        </mxCell>
        <mxCell id="JFEak406XiJLU-9GUNY_-19" style="edgeStyle=orthogonalEdgeStyle;rounded=0;orthogonalLoop=1;jettySize=auto;html=1;exitX=1;exitY=0.5;exitDx=0;exitDy=0;entryX=0;entryY=0.5;entryDx=0;entryDy=0;" parent="WIyWlLk6GJQsqaUBKTNV-1" source="CTdliA3NCelJ69mW_nRL-76" target="JFEak406XiJLU-9GUNY_-18" edge="1">
          <mxGeometry relative="1" as="geometry" />
        </mxCell>
        <mxCell id="CTdliA3NCelJ69mW_nRL-76" value="Navigate to &quot;Search the shop&quot;" style="rounded=1;whiteSpace=wrap;html=1;fontSize=12;glass=0;strokeWidth=1;shadow=0;" parent="WIyWlLk6GJQsqaUBKTNV-1" vertex="1">
          <mxGeometry x="-335" y="315" width="120" height="40" as="geometry" />
        </mxCell>
        <mxCell id="CTdliA3NCelJ69mW_nRL-81" style="edgeStyle=orthogonalEdgeStyle;rounded=0;orthogonalLoop=1;jettySize=auto;html=1;entryX=0;entryY=0.5;entryDx=0;entryDy=0;" parent="WIyWlLk6GJQsqaUBKTNV-1" source="CTdliA3NCelJ69mW_nRL-78" target="CTdliA3NCelJ69mW_nRL-80" edge="1">
          <mxGeometry relative="1" as="geometry" />
        </mxCell>
        <mxCell id="CTdliA3NCelJ69mW_nRL-78" value="Select the desired shop" style="rounded=1;whiteSpace=wrap;html=1;fontSize=12;glass=0;strokeWidth=1;shadow=0;" parent="WIyWlLk6GJQsqaUBKTNV-1" vertex="1">
          <mxGeometry x="-30" y="315" width="120" height="40" as="geometry" />
        </mxCell>
        <mxCell id="CTdliA3NCelJ69mW_nRL-83" style="edgeStyle=orthogonalEdgeStyle;rounded=0;orthogonalLoop=1;jettySize=auto;html=1;entryX=0;entryY=0.5;entryDx=0;entryDy=0;" parent="WIyWlLk6GJQsqaUBKTNV-1" source="CTdliA3NCelJ69mW_nRL-80" target="CTdliA3NCelJ69mW_nRL-82" edge="1">
          <mxGeometry relative="1" as="geometry" />
        </mxCell>
        <mxCell id="CTdliA3NCelJ69mW_nRL-80" value="Book a ticket" style="rounded=1;whiteSpace=wrap;html=1;fontSize=12;glass=0;strokeWidth=1;shadow=0;" parent="WIyWlLk6GJQsqaUBKTNV-1" vertex="1">
          <mxGeometry x="120" y="315" width="120" height="40" as="geometry" />
        </mxCell>
        <mxCell id="CTdliA3NCelJ69mW_nRL-84" style="edgeStyle=orthogonalEdgeStyle;rounded=0;orthogonalLoop=1;jettySize=auto;html=1;entryX=0.5;entryY=0;entryDx=0;entryDy=0;" parent="WIyWlLk6GJQsqaUBKTNV-1" source="CTdliA3NCelJ69mW_nRL-82" target="CTdliA3NCelJ69mW_nRL-78" edge="1">
          <mxGeometry relative="1" as="geometry">
            <Array as="points">
              <mxPoint x="310" y="280" />
              <mxPoint x="30" y="280" />
            </Array>
          </mxGeometry>
        </mxCell>
        <mxCell id="CTdliA3NCelJ69mW_nRL-90" style="edgeStyle=orthogonalEdgeStyle;rounded=0;orthogonalLoop=1;jettySize=auto;html=1;entryX=1;entryY=0.5;entryDx=0;entryDy=0;" parent="WIyWlLk6GJQsqaUBKTNV-1" source="CTdliA3NCelJ69mW_nRL-82" target="CTdliA3NCelJ69mW_nRL-91" edge="1">
          <mxGeometry relative="1" as="geometry">
            <mxPoint x="220" y="400" as="targetPoint" />
            <Array as="points">
              <mxPoint x="310" y="400" />
            </Array>
          </mxGeometry>
        </mxCell>
        <mxCell id="CTdliA3NCelJ69mW_nRL-82" value="Operation successful?" style="rhombus;whiteSpace=wrap;html=1;" parent="WIyWlLk6GJQsqaUBKTNV-1" vertex="1">
          <mxGeometry x="270" y="295" width="80" height="80" as="geometry" />
        </mxCell>
        <mxCell id="CTdliA3NCelJ69mW_nRL-86" value="" style="shape=ellipse;fillColor=#000000;strokeColor=none;html=1;sketch=0;" parent="WIyWlLk6GJQsqaUBKTNV-1" vertex="1">
          <mxGeometry x="130" y="170" width="10" height="10" as="geometry" />
        </mxCell>
        <mxCell id="CTdliA3NCelJ69mW_nRL-88" style="edgeStyle=orthogonalEdgeStyle;rounded=0;orthogonalLoop=1;jettySize=auto;html=1;entryX=1;entryY=0.5;entryDx=0;entryDy=0;" parent="WIyWlLk6GJQsqaUBKTNV-1" source="CTdliA3NCelJ69mW_nRL-87" target="CTdliA3NCelJ69mW_nRL-86" edge="1">
          <mxGeometry relative="1" as="geometry" />
        </mxCell>
        <mxCell id="CTdliA3NCelJ69mW_nRL-87" value="Implement the updates" style="rounded=1;whiteSpace=wrap;html=1;fontSize=12;glass=0;strokeWidth=1;shadow=0;" parent="WIyWlLk6GJQsqaUBKTNV-1" vertex="1">
          <mxGeometry x="170" y="155" width="120" height="40" as="geometry" />
        </mxCell>
        <mxCell id="CTdliA3NCelJ69mW_nRL-92" style="edgeStyle=orthogonalEdgeStyle;rounded=0;orthogonalLoop=1;jettySize=auto;html=1;entryX=1;entryY=0.5;entryDx=0;entryDy=0;" parent="WIyWlLk6GJQsqaUBKTNV-1" source="CTdliA3NCelJ69mW_nRL-91" target="CTdliA3NCelJ69mW_nRL-93" edge="1">
          <mxGeometry relative="1" as="geometry">
            <mxPoint x="90" y="400" as="targetPoint" />
          </mxGeometry>
        </mxCell>
        <mxCell id="CTdliA3NCelJ69mW_nRL-91" value="QR code generation" style="rounded=1;whiteSpace=wrap;html=1;fontSize=12;glass=0;strokeWidth=1;shadow=0;" parent="WIyWlLk6GJQsqaUBKTNV-1" vertex="1">
          <mxGeometry x="120" y="380" width="120" height="40" as="geometry" />
        </mxCell>
        <mxCell id="CTdliA3NCelJ69mW_nRL-93" value="" style="shape=ellipse;fillColor=#000000;strokeColor=none;html=1;sketch=0;" parent="WIyWlLk6GJQsqaUBKTNV-1" vertex="1">
          <mxGeometry x="70" y="395" width="10" height="10" as="geometry" />
        </mxCell>
        <mxCell id="CTdliA3NCelJ69mW_nRL-102" style="edgeStyle=orthogonalEdgeStyle;rounded=0;orthogonalLoop=1;jettySize=auto;html=1;entryX=0;entryY=0.5;entryDx=0;entryDy=0;" parent="WIyWlLk6GJQsqaUBKTNV-1" source="CTdliA3NCelJ69mW_nRL-99" target="CTdliA3NCelJ69mW_nRL-122" edge="1">
          <mxGeometry relative="1" as="geometry">
            <mxPoint x="-312" y="555" as="targetPoint" />
          </mxGeometry>
        </mxCell>
        <mxCell id="CTdliA3NCelJ69mW_nRL-99" value="Select a slot" style="rounded=1;whiteSpace=wrap;html=1;fontSize=12;glass=0;strokeWidth=1;shadow=0;" parent="WIyWlLk6GJQsqaUBKTNV-1" vertex="1">
          <mxGeometry x="-462" y="535" width="120" height="40" as="geometry" />
        </mxCell>
        <mxCell id="CTdliA3NCelJ69mW_nRL-103" value="NO" style="text;html=1;align=center;verticalAlign=middle;resizable=0;points=[];autosize=1;strokeColor=none;fillColor=none;" parent="WIyWlLk6GJQsqaUBKTNV-1" vertex="1">
          <mxGeometry x="55" y="250" width="40" height="30" as="geometry" />
        </mxCell>
        <mxCell id="CTdliA3NCelJ69mW_nRL-109" value="YES" style="text;html=1;align=center;verticalAlign=middle;resizable=0;points=[];autosize=1;strokeColor=none;fillColor=none;" parent="WIyWlLk6GJQsqaUBKTNV-1" vertex="1">
          <mxGeometry x="260" y="400" width="50" height="30" as="geometry" />
        </mxCell>
        <mxCell id="CTdliA3NCelJ69mW_nRL-114" value="NO" style="text;html=1;align=center;verticalAlign=middle;resizable=0;points=[];autosize=1;strokeColor=none;fillColor=none;" parent="WIyWlLk6GJQsqaUBKTNV-1" vertex="1">
          <mxGeometry x="-257" y="595" width="40" height="30" as="geometry" />
        </mxCell>
        <mxCell id="JFEak406XiJLU-9GUNY_-7" style="edgeStyle=orthogonalEdgeStyle;rounded=0;orthogonalLoop=1;jettySize=auto;html=1;exitX=1;exitY=0.5;exitDx=0;exitDy=0;entryX=0;entryY=0.5;entryDx=0;entryDy=0;" parent="WIyWlLk6GJQsqaUBKTNV-1" source="CTdliA3NCelJ69mW_nRL-117" target="JFEak406XiJLU-9GUNY_-6" edge="1">
          <mxGeometry relative="1" as="geometry" />
        </mxCell>
        <mxCell id="CTdliA3NCelJ69mW_nRL-117" value="QR code&lt;br&gt;generation" style="rounded=1;whiteSpace=wrap;html=1;fontSize=12;glass=0;strokeWidth=1;shadow=0;" parent="WIyWlLk6GJQsqaUBKTNV-1" vertex="1">
          <mxGeometry x="-157" y="535" width="120" height="40" as="geometry" />
        </mxCell>
        <mxCell id="CTdliA3NCelJ69mW_nRL-123" style="edgeStyle=orthogonalEdgeStyle;rounded=0;orthogonalLoop=1;jettySize=auto;html=1;entryX=0;entryY=0.5;entryDx=0;entryDy=0;" parent="WIyWlLk6GJQsqaUBKTNV-1" source="CTdliA3NCelJ69mW_nRL-122" target="CTdliA3NCelJ69mW_nRL-117" edge="1">
          <mxGeometry relative="1" as="geometry">
            <mxPoint x="-192" y="555" as="targetPoint" />
          </mxGeometry>
        </mxCell>
        <mxCell id="JFEak406XiJLU-9GUNY_-10" style="edgeStyle=orthogonalEdgeStyle;rounded=0;orthogonalLoop=1;jettySize=auto;html=1;exitX=0.5;exitY=1;exitDx=0;exitDy=0;entryX=0.442;entryY=1;entryDx=0;entryDy=0;entryPerimeter=0;" parent="WIyWlLk6GJQsqaUBKTNV-1" source="CTdliA3NCelJ69mW_nRL-122" target="CTdliA3NCelJ69mW_nRL-99" edge="1">
          <mxGeometry relative="1" as="geometry" />
        </mxCell>
        <mxCell id="CTdliA3NCelJ69mW_nRL-122" value="Free slot?" style="rhombus;whiteSpace=wrap;html=1;" parent="WIyWlLk6GJQsqaUBKTNV-1" vertex="1">
          <mxGeometry x="-307" y="515" width="80" height="80" as="geometry" />
        </mxCell>
        <mxCell id="JFEak406XiJLU-9GUNY_-1" style="edgeStyle=orthogonalEdgeStyle;rounded=0;orthogonalLoop=1;jettySize=auto;html=1;entryX=0;entryY=0.5;entryDx=0;entryDy=0;" parent="WIyWlLk6GJQsqaUBKTNV-1" source="JFEak406XiJLU-9GUNY_-2" target="CTdliA3NCelJ69mW_nRL-99" edge="1">
          <mxGeometry relative="1" as="geometry">
            <mxPoint x="-612" y="555" as="targetPoint" />
          </mxGeometry>
        </mxCell>
        <mxCell id="JFEak406XiJLU-9GUNY_-2" value="" style="shape=ellipse;fillColor=#000000;strokeColor=none;html=1;sketch=0;" parent="WIyWlLk6GJQsqaUBKTNV-1" vertex="1">
          <mxGeometry x="-522" y="550" width="10" height="10" as="geometry" />
        </mxCell>
        <mxCell id="JFEak406XiJLU-9GUNY_-4" value="YES" style="text;html=1;align=center;verticalAlign=middle;resizable=0;points=[];autosize=1;strokeColor=none;fillColor=none;" parent="WIyWlLk6GJQsqaUBKTNV-1" vertex="1">
          <mxGeometry x="-232" y="530" width="50" height="30" as="geometry" />
        </mxCell>
        <mxCell id="JFEak406XiJLU-9GUNY_-25" style="edgeStyle=orthogonalEdgeStyle;rounded=0;orthogonalLoop=1;jettySize=auto;html=1;exitX=1;exitY=0.5;exitDx=0;exitDy=0;entryX=0;entryY=0.5;entryDx=0;entryDy=0;" parent="WIyWlLk6GJQsqaUBKTNV-1" source="JFEak406XiJLU-9GUNY_-6" target="JFEak406XiJLU-9GUNY_-23" edge="1">
          <mxGeometry relative="1" as="geometry" />
        </mxCell>
        <mxCell id="JFEak406XiJLU-9GUNY_-6" value="Notification to the shop owner" style="rounded=1;whiteSpace=wrap;html=1;fontSize=12;glass=0;strokeWidth=1;shadow=0;" parent="WIyWlLk6GJQsqaUBKTNV-1" vertex="1">
          <mxGeometry x="22" y="535" width="120" height="40" as="geometry" />
        </mxCell>
        <mxCell id="JFEak406XiJLU-9GUNY_-15" value="&lt;b&gt;Shop Owner Operations&lt;/b&gt;" style="text;html=1;align=center;verticalAlign=middle;resizable=0;points=[];autosize=1;strokeColor=none;fillColor=none;" parent="WIyWlLk6GJQsqaUBKTNV-1" vertex="1">
          <mxGeometry x="-430" y="5" width="160" height="30" as="geometry" />
        </mxCell>
        <mxCell id="JFEak406XiJLU-9GUNY_-16" value="&lt;b&gt;Customer booking&lt;/b&gt;" style="text;html=1;align=center;verticalAlign=middle;resizable=0;points=[];autosize=1;strokeColor=none;fillColor=none;" parent="WIyWlLk6GJQsqaUBKTNV-1" vertex="1">
          <mxGeometry x="-540" y="265" width="130" height="30" as="geometry" />
        </mxCell>
        <mxCell id="JFEak406XiJLU-9GUNY_-17" value="&lt;b&gt;Book a ticket&lt;/b&gt;" style="text;html=1;align=center;verticalAlign=middle;resizable=0;points=[];autosize=1;strokeColor=none;fillColor=none;" parent="WIyWlLk6GJQsqaUBKTNV-1" vertex="1">
          <mxGeometry x="-540" y="470" width="100" height="30" as="geometry" />
        </mxCell>
        <mxCell id="JFEak406XiJLU-9GUNY_-20" style="edgeStyle=orthogonalEdgeStyle;rounded=0;orthogonalLoop=1;jettySize=auto;html=1;exitX=1;exitY=0.5;exitDx=0;exitDy=0;entryX=0;entryY=0.5;entryDx=0;entryDy=0;" parent="WIyWlLk6GJQsqaUBKTNV-1" source="JFEak406XiJLU-9GUNY_-18" target="CTdliA3NCelJ69mW_nRL-78" edge="1">
          <mxGeometry relative="1" as="geometry" />
        </mxCell>
        <mxCell id="JFEak406XiJLU-9GUNY_-18" value="Select Shop category" style="rounded=1;whiteSpace=wrap;html=1;fontSize=12;glass=0;strokeWidth=1;shadow=0;" parent="WIyWlLk6GJQsqaUBKTNV-1" vertex="1">
          <mxGeometry x="-180" y="315" width="120" height="40" as="geometry" />
        </mxCell>
        <mxCell id="JFEak406XiJLU-9GUNY_-23" value="" style="shape=ellipse;fillColor=#000000;strokeColor=none;html=1;sketch=0;" parent="WIyWlLk6GJQsqaUBKTNV-1" vertex="1">
          <mxGeometry x="188" y="550" width="10" height="10" as="geometry" />
        </mxCell>
      </root>
    </mxGraphModel>
  </diagram>
</mxfile>
